# xmcd
#
# Track frame offsets: 
#        150
#        14426
#        31942
#        49669
#        64843
#        77124
#        93100
#        115777
#        132473
#        149279
#        165034
#        178228
#        195032
#        207047
#        219978
#
# Disc length: 3230 seconds
#
# Revision: 0
# Processed by: cddbd v1.5.2PL0 Copyright (c) Steve Scherf et al.
# Submitted via: ExactAudioCopy v0.99pb5
#
DISCID=be0c9c0f
DTITLE=Maurane - Nougaro Ou L'Espérance En L'Homme
DYEAR=2009
DGENRE=Pop
TTITLE0=Armstrong
TTITLE1=La Danse
TTITLE2=Rimes
TTITLE3=Dansez Sur Moi
TTITLE4=Le Jazz Et La java
TTITLE5=Tu Verras (En Duo Avec Calogero)
TTITLE6=Toulouse
TTITLE7=Didonville
TTITLE8=Il Faut Tourner La Page
TTITLE9=Le Coq Et La Pendule
TTITLE10=Gratte-moi La Tête
TTITLE11=La Pluie Fait Des Claquettes
TTITLE12=Allée Des Brouillards
TTITLE13=Il Y Avait Une Ville
TTITLE14=L'Espérance En L'Homme
EXTD=
EXTT0=
EXTT1=
EXTT2=
EXTT3=
EXTT4=
EXTT5=
EXTT6=
EXTT7=
EXTT8=
EXTT9=
EXTT10=
EXTT11=
EXTT12=
EXTT13=
EXTT14=
PLAYORDER=
